<svg xmlns="http://www.w3.org/2000/svg" width="71.228" height="28.884" viewBox="0 0 71.228 28.884">
  <g id="af_eyon_logotipo_telecom" transform="translate(-235.17 -495.61)">
    <g id="Grupo_1618" data-name="Grupo 1618" transform="translate(235.17 495.61)">
      <g id="Grupo_1615" data-name="Grupo 1615" transform="translate(0 2.281)">
        <path id="Caminho_1132" data-name="Caminho 1132" d="M235.17,523.524h11.023v-1.139h-9.884v-9.529h8.723v-1.139h-8.723v-7.958h9.884V502.62H235.17Z" transform="translate(-235.17 -502.62)" fill="#000"/>
        <path id="Caminho_1133" data-name="Caminho 1133" d="M284.99,532.08l-4.226-12.49h-1.2l4.835,14.14-2.544,6.943h1.236l7.73-21.083h-1.236Z" transform="translate(-265.118 -514.069)" fill="#000"/>
      </g>
      <g id="Grupo_1617" data-name="Grupo 1617" transform="translate(28.006)">
        <path id="Caminho_1134" data-name="Caminho 1134" d="M411.51,502.62v15.229L399.784,503.4a2.125,2.125,0,0,0-3.774,1.34v18.782h3.4v-15.2l11.726,14.416a2.128,2.128,0,0,0,1.646.784h0a2.123,2.123,0,0,0,2.125-2.125V502.62Z" transform="translate(-371.687 -500.339)" fill="#000"/>
        <g id="Grupo_1616" data-name="Grupo 1616">
          <path id="Caminho_1135" data-name="Caminho 1135" d="M336.694,506.51l-1.461,3.094a7.047,7.047,0,1,1-7.06,0l-1.461-3.094a10.453,10.453,0,1,0,9.982,0Z" transform="translate(-321.25 -502.964)" fill="#000"/>
          <path id="Caminho_1136" data-name="Caminho 1136" d="M349.852,510.039a1.7,1.7,0,0,0,1.7-1.7V495.61h-3.4v12.728A1.7,1.7,0,0,0,349.852,510.039Z" transform="translate(-339.398 -495.61)" fill="#000"/>
        </g>
      </g>
    </g>
  </g>
</svg>
