<?xml version="1.0" ?><svg height="24" id="svg3171" version="1.1" viewBox="0 0 6.3499999 6.3500002" width="24" xmlns="http://www.w3.org/2000/svg" xmlns:cc="http://creativecommons.org/ns#" xmlns:dc="http://purl.org/dc/elements/1.1/" xmlns:inkscape="http://www.inkscape.org/namespaces/inkscape" xmlns:rdf="http://www.w3.org/1999/02/22-rdf-syntax-ns#" xmlns:sodipodi="http://sodipodi.sourceforge.net/DTD/sodipodi-0.dtd" xmlns:svg="http://www.w3.org/2000/svg"><defs id="defs3165"/><g id="layer1"><path d="m 1.5854714,0.52917264 c -0.105311,5.3e-4 -0.200292,0.06343 -0.241845,0.160213 C 1.0646128,1.3839765 0.7326726,2.0650812 0.53080539,2.6817016 c -0.0026,0.4935569 -0.03459,1.1035919 0.52761601,1.2729131 v 1.6026407 c 5.821e-4,0.1453291 0.118236,0.2629983 0.2635499,0.2635772 h 3.703133 C 5.1712252,5.8213617 5.2901383,5.7033914 5.2907214,5.5572554 V 3.9556486 C 5.8931483,3.8353624 5.8198883,3.1752585 5.8162704,2.6858346 5.6107367,1.9775181 5.2585543,1.2796309 5.0039504,0.68937864 c -0.04164,-0.09695 -0.1368711,-0.159903 -0.24237,-0.160213 -1.0587029,8.75e-6 -2.1174067,-1.543e-5 -3.176109,7e-6 z m 0.798918,3.31123096 c 0.260449,0.17112 0.525033,0.168934 0.793233,0 0.2668119,0.1754589 0.53072,0.1700479 0.794784,0 0.25777,0.16365 0.521218,0.181162 0.7890988,0.0057 V 5.2916328 H 3.9682725 V 5.0280449 c -5.292e-4,-1.0589522 -1.5880171,-1.0589522 -1.5875001,0 v 0.2635768 h -0.795301 v -1.441913 c 0.258583,0.1625441 0.520773,0.1590122 0.798918,-0.0093 z" id="path2792" style="color:#000000;font-style:normal;font-variant:normal;font-weight:normal;font-stretch:normal;font-size:medium;line-height:normal;font-family:sans-serif;font-variant-ligatures:normal;font-variant-position:normal;font-variant-caps:normal;font-variant-numeric:normal;font-variant-alternates:normal;font-variant-east-asian:normal;font-feature-settings:normal;font-variation-settings:normal;text-indent:0;text-align:start;text-decoration:none;text-decoration-line:none;text-decoration-style:solid;text-decoration-color:#000000;letter-spacing:normal;word-spacing:normal;text-transform:none;writing-mode:lr-tb;direction:ltr;text-orientation:mixed;dominant-baseline:auto;baseline-shift:baseline;text-anchor:start;white-space:normal;shape-padding:0;shape-margin:0;inline-size:0;clip-rule:nonzero;display:inline;overflow:visible;visibility:visible;opacity:1;isolation:auto;mix-blend-mode:normal;color-interpolation:sRGB;color-interpolation-filters:linearRGB;solid-color:#000000;solid-opacity:1;vector-effect:none;fill:#000000;fill-opacity:1;fill-rule:nonzero;stroke:none;stroke-width:0.529193;stroke-linecap:round;stroke-linejoin:round;stroke-miterlimit:4;stroke-dasharray:none;stroke-dashoffset:0;stroke-opacity:1;color-rendering:auto;image-rendering:auto;shape-rendering:auto;text-rendering:auto;enable-background:accumulate;stop-color:#000000;stop-opacity:1"/></g></svg>